<svg width="30" height="30" viewBox="0 0 30 30" fill="none" xmlns="http://www.w3.org/2000/svg">
<path d="M15.0002 3.5C15.1172 3.49996 15.2305 3.54097 15.3204 3.61589C15.4103 3.69081 15.4711 3.79489 15.4922 3.91L15.5002 4V9H28.0002C28.0717 8.99989 28.1425 9.01514 28.2076 9.04471C28.2728 9.07429 28.3308 9.11751 28.3778 9.17145C28.4249 9.22539 28.4598 9.28879 28.4802 9.35738C28.5006 9.42596 28.506 9.49813 28.4962 9.569L28.4782 9.649L23.4782 25.649C23.4511 25.7359 23.4009 25.8137 23.3329 25.8742C23.2648 25.9346 23.1816 25.9754 23.0921 25.992L23.0002 26H7.00015C6.90943 25.9998 6.82046 25.975 6.74277 25.9281C6.66508 25.8813 6.60161 25.8142 6.55915 25.734L6.52315 25.649L1.52315 9.649C1.50189 9.58082 1.49549 9.50887 1.50437 9.438C1.51325 9.36713 1.53721 9.29899 1.57464 9.23816C1.61206 9.17733 1.66209 9.12523 1.72134 9.08535C1.7806 9.04548 1.8477 9.01876 1.91815 9.007L2.00015 9H14.5002V4C14.5002 3.86739 14.5528 3.74021 14.6466 3.64645C14.7404 3.55268 14.8675 3.5 15.0002 3.5ZM27.3202 10H2.68015L7.36715 25H22.6322L27.3202 10Z" fill="black"/>
</svg>
