<svg width="24" height="26" viewBox="0 0 24 26" fill="none" xmlns="http://www.w3.org/2000/svg">
<g clip-path="url(#clip0_1_347)">
<path d="M20.0498 2.56106C20.3424 2.56106 20.5904 2.66273 20.7938 2.86606C20.9971 3.06939 21.0988 3.31739 21.0988 3.61006V20.2471C21.0988 20.5397 20.9971 20.7877 20.7938 20.9911C20.5904 21.1944 20.3424 21.2961 20.0498 21.2961H15.3178V14.0751H17.7328L18.0748 11.2211H15.3178V9.39106C15.3178 8.95173 15.4154 8.61839 15.6108 8.39106C15.8061 8.16372 16.1638 8.04973 16.6838 8.04906H18.1718V5.51206C17.5211 5.44673 16.7974 5.41406 16.0008 5.41406C14.9114 5.41406 14.0331 5.73539 13.3658 6.37806C12.6984 7.02073 12.3651 7.92739 12.3658 9.09806V11.2201H9.95077V14.0741H12.3658V21.2951H3.41277C3.1201 21.2951 2.8721 21.1934 2.66877 20.9901C2.46544 20.7867 2.36377 20.5387 2.36377 20.2461V3.60906C2.36377 3.31639 2.46544 3.06839 2.66877 2.86506C2.8721 2.66173 3.1201 2.56006 3.41277 2.56006L20.0498 2.56106Z" fill="white"/>
</g>
<defs>
<clipPath id="clip0_1_347">
<rect width="20" height="20" fill="white" transform="translate(2 1.75)"/>
</clipPath>
</defs>
</svg>
