<svg width="25" height="22" viewBox="0 0 25 22" fill="none" xmlns="http://www.w3.org/2000/svg">
<path d="M12.4463 21.5466C12.2167 21.5436 11.9925 21.4762 11.7987 21.3518C8.50587 19.3191 6.02808 17.3084 4.00511 15.0112C2.85032 13.7812 1.9553 12.3267 1.37451 10.7363C0.330278 7.65607 1.5346 4.05756 4.17975 2.36306C5.38556 1.58283 6.8247 1.25617 8.24499 1.44031C9.66529 1.62445 10.9762 2.30766 11.9478 3.3702C12.1261 3.56134 12.2899 3.7635 12.4463 3.962C12.6595 3.68708 12.8892 3.42561 13.134 3.17907C13.7248 2.59057 14.4267 2.12816 15.1981 1.81937C15.9694 1.51058 16.7943 1.36172 17.6238 1.38165C18.4363 1.40435 19.2358 1.59287 19.9743 1.93588C20.7127 2.27888 21.3748 2.76928 21.9208 3.37756C23.9802 5.63076 24.4678 8.36548 23.2816 11.284C22.6567 12.7502 21.7727 14.0892 20.6729 15.2354C18.7419 17.3149 16.557 19.1379 14.1709 20.6607C13.8508 20.8739 13.5197 21.0797 13.1922 21.2819L13.094 21.3444C12.9006 21.4708 12.6765 21.5408 12.4463 21.5466Z" stroke="black" stroke-width="0.916667"/>
</svg>
