<svg width="23" height="26" viewBox="0 0 23 26" fill="none" xmlns="http://www.w3.org/2000/svg">
<g clip-path="url(#clip0_1_342)">
<path d="M11.5 3.68359C14.1289 3.68359 14.4375 3.69531 15.4766 3.74219C16.4375 3.78516 16.957 3.94531 17.3047 4.08203C17.7656 4.26172 18.0938 4.47266 18.4375 4.81641C18.7812 5.16016 18.9961 5.48828 19.1719 5.94922C19.3047 6.29688 19.4688 6.81641 19.5117 7.77734C19.5586 8.81641 19.5703 9.125 19.5703 11.7539C19.5703 14.3828 19.5586 14.6914 19.5117 15.7305C19.4688 16.6914 19.3086 17.2109 19.1719 17.5586C18.9922 18.0195 18.7812 18.3477 18.4375 18.6914C18.0938 19.0352 17.7656 19.25 17.3047 19.4258C16.957 19.5586 16.4375 19.7227 15.4766 19.7656C14.4375 19.8125 14.1289 19.8242 11.5 19.8242C8.87109 19.8242 8.5625 19.8125 7.52344 19.7656C6.5625 19.7227 6.04297 19.5625 5.69531 19.4258C5.23438 19.2461 4.90625 19.0352 4.5625 18.6914C4.21875 18.3477 4.00391 18.0195 3.82812 17.5586C3.69531 17.2109 3.53125 16.6914 3.48828 15.7305C3.44141 14.6914 3.42969 14.3828 3.42969 11.7539C3.42969 9.125 3.44141 8.81641 3.48828 7.77734C3.53125 6.81641 3.69141 6.29688 3.82812 5.94922C4.00781 5.48828 4.21875 5.16016 4.5625 4.81641C4.90625 4.47266 5.23438 4.25781 5.69531 4.08203C6.04297 3.94922 6.5625 3.78516 7.52344 3.74219C8.5625 3.69141 8.87109 3.68359 11.5 3.68359ZM11.5 1.91016C8.82812 1.91016 8.49219 1.92187 7.44141 1.96875C6.39453 2.01562 5.67969 2.18359 5.05469 2.42578C4.40625 2.67578 3.85938 3.01563 3.3125 3.5625C2.76563 4.10938 2.42969 4.66016 2.17578 5.30469C1.93359 5.92969 1.76562 6.64453 1.71875 7.69531C1.67187 8.74219 1.66016 9.07812 1.66016 11.75C1.66016 14.4219 1.67187 14.7578 1.71875 15.8086C1.76562 16.8555 1.93359 17.5703 2.17578 18.1992C2.42578 18.8477 2.76563 19.3945 3.3125 19.9414C3.85938 20.4883 4.41016 20.8242 5.05469 21.0781C5.67969 21.3203 6.39453 21.4883 7.44531 21.5352C8.49609 21.582 8.82812 21.5938 11.5039 21.5938C14.1797 21.5938 14.5117 21.582 15.5625 21.5352C16.6094 21.4883 17.3242 21.3203 17.9531 21.0781C18.6016 20.8281 19.1484 20.4883 19.6953 19.9414C20.2422 19.3945 20.5781 18.8438 20.832 18.1992C21.0742 17.5742 21.2422 16.8594 21.2891 15.8086C21.3359 14.7578 21.3477 14.4258 21.3477 11.75C21.3477 9.07422 21.3359 8.74219 21.2891 7.69141C21.2422 6.64453 21.0742 5.92969 20.832 5.30078C20.582 4.65234 20.2422 4.10547 19.6953 3.55859C19.1484 3.01172 18.5977 2.67578 17.9531 2.42188C17.3281 2.17969 16.6133 2.01172 15.5625 1.96484C14.5078 1.92188 14.1719 1.91016 11.5 1.91016Z" fill="white"/>
<path d="M11.5 6.69531C8.71094 6.69531 6.44531 8.95703 6.44531 11.75C6.44531 14.543 8.71094 16.8047 11.5 16.8047C14.2891 16.8047 16.5547 14.5391 16.5547 11.75C16.5547 8.96094 14.2891 6.69531 11.5 6.69531ZM11.5 15.0312C9.6875 15.0312 8.21875 13.5625 8.21875 11.75C8.21875 9.9375 9.6875 8.46875 11.5 8.46875C13.3125 8.46875 14.7812 9.9375 14.7812 11.75C14.7812 13.5625 13.3125 15.0312 11.5 15.0312Z" fill="white"/>
<path d="M16.7539 7.67578C17.4054 7.67578 17.9336 7.14762 17.9336 6.49609C17.9336 5.84457 17.4054 5.31641 16.7539 5.31641C16.1024 5.31641 15.5742 5.84457 15.5742 6.49609C15.5742 7.14762 16.1024 7.67578 16.7539 7.67578Z" fill="white"/>
</g>
<defs>
<clipPath id="clip0_1_342">
<rect width="20" height="20" fill="white" transform="translate(1.5 1.75)"/>
</clipPath>
</defs>
</svg>
