<svg width="73" height="72" viewBox="0 0 73 72" fill="none" xmlns="http://www.w3.org/2000/svg">
<g clip-path="url(#clip0_1_300)">
<path d="M27.8113 20.0687C26.7676 20.1937 25.5363 20.5999 24.5988 21.1312C22.1738 22.5249 20.5738 24.9499 20.2676 27.7062C20.1738 28.5374 20.1738 43.4624 20.2676 44.2937C20.7113 48.3124 23.8863 51.4874 27.9051 51.9312C28.7363 52.0249 43.6613 52.0249 44.4926 51.9312C48.5113 51.4874 51.6863 48.3124 52.1301 44.2937C52.2238 43.4624 52.2238 28.5374 52.1301 27.7062C51.6863 23.6874 48.5113 20.5124 44.4926 20.0687C43.7551 19.9874 28.5301 19.9874 27.8113 20.0687ZM45.1426 22.0749C46.4426 22.4312 47.4426 22.9999 48.3176 23.8812C49.1988 24.7562 49.7676 25.7562 50.1301 27.0562L50.2926 27.6562V35.9999V44.3437L50.1301 44.9437C49.7676 46.2437 49.1988 47.2437 48.3176 48.1187C47.4426 48.9999 46.4426 49.5687 45.1426 49.9312L44.5426 50.0937H36.1988H27.8551L27.2551 49.9312C25.9551 49.5687 24.9551 48.9999 24.0801 48.1187C23.1988 47.2437 22.6301 46.2437 22.2676 44.9437L22.1051 44.3437V35.9999V27.6562L22.2676 27.0562C22.6301 25.7562 23.1988 24.7562 24.0738 23.8812C25.1113 22.8437 26.4801 22.1562 27.9176 21.9437C28.1238 21.9124 31.9488 21.8937 36.4176 21.8999L44.5426 21.9062L45.1426 22.0749Z" fill="white"/>
<path d="M44.8544 24.1687C43.3294 24.3812 42.2919 25.8625 42.6607 27.3C42.9169 28.3187 43.5669 28.9625 44.5794 29.225C46.2982 29.6625 47.9857 28.1062 47.6982 26.35C47.5419 25.3687 46.8232 24.5437 45.8857 24.2625C45.6107 24.1812 45.1044 24.1375 44.8544 24.1687ZM45.5544 26.1625C45.8919 26.375 45.9482 26.8937 45.6669 27.1875C45.4357 27.425 45.1544 27.4812 44.8669 27.3437C44.4294 27.1375 44.3357 26.5625 44.6857 26.2375C44.9419 25.9937 45.2419 25.9687 45.5544 26.1625Z" fill="white"/>
<path d="M34.9934 27.3436C31.5372 27.8186 28.6184 30.4186 27.7372 33.8249C26.9622 36.8061 27.8309 39.9561 30.0372 42.1624C33.4747 45.5999 38.9247 45.5999 42.3622 42.1624C45.7997 38.7249 45.7997 33.2749 42.3622 29.8374C40.3872 27.8686 37.7434 26.9686 34.9934 27.3436ZM37.1997 29.2186C38.6997 29.4436 39.9747 30.0874 41.0434 31.1561C43.7372 33.8436 43.7372 38.1561 41.0434 40.8436C38.3559 43.5374 34.0434 43.5374 31.3559 40.8436C28.6622 38.1561 28.6622 33.8436 31.3559 31.1561C32.9122 29.5999 35.0497 28.8874 37.1997 29.2186Z" fill="white"/>
</g>
<circle cx="36.1992" cy="36" r="31" stroke="white" stroke-width="2"/>
<defs>
<clipPath id="clip0_1_300">
<rect width="32" height="32" fill="white" transform="translate(20.1992 20)"/>
</clipPath>
</defs>
</svg>
