<svg width="165" height="113" viewBox="0 0 165 113" fill="none" xmlns="http://www.w3.org/2000/svg">
<mask id="path-1-inside-1_1_313" fill="white">
<path d="M45.8672 12.6408C44.4922 15.7052 37.519 30.7399 23.3762 61.2882C10.8047 88.2933 7.95652 94.8052 8.64402 94.8052C9.03688 94.8052 17.6797 76.706 27.894 54.5848C38.1083 32.3679 46.9476 13.6942 47.5369 12.8323C48.4208 11.7789 51.8583 18.2908 63.8405 44.2425C84.4655 89.0594 87.4119 95.0925 87.903 94.6137C88.2958 94.2306 84.269 85.3247 58.9297 30.6442C53.7244 19.4399 48.9119 9.95942 48.3226 9.76789C47.7333 9.57636 46.5547 10.917 45.8672 12.6408Z"/>
</mask>
<path d="M45.8672 12.6408C44.4922 15.7052 37.519 30.7399 23.3762 61.2882C10.8047 88.2933 7.95652 94.8052 8.64402 94.8052C9.03688 94.8052 17.6797 76.706 27.894 54.5848C38.1083 32.3679 46.9476 13.6942 47.5369 12.8323C48.4208 11.7789 51.8583 18.2908 63.8405 44.2425C84.4655 89.0594 87.4119 95.0925 87.903 94.6137C88.2958 94.2306 84.269 85.3247 58.9297 30.6442C53.7244 19.4399 48.9119 9.95942 48.3226 9.76789C47.7333 9.57636 46.5547 10.917 45.8672 12.6408Z" fill="white"/>
<path d="M45.8672 12.6408L64.4442 20.0501L64.2876 20.4427L64.1145 20.8283L45.8672 12.6408ZM23.3762 61.2882L41.5255 69.6908L41.5167 69.7098L41.5078 69.7289L23.3762 61.2882ZM27.894 54.5848L46.0655 62.9392L46.0587 62.9541L46.0518 62.9691L27.894 54.5848ZM47.5369 12.8323L31.0271 1.54398L31.583 0.73085L32.2162 -0.0237045L47.5369 12.8323ZM63.8405 44.2425L81.9985 35.8587L82.0037 35.87L82.0089 35.8813L63.8405 44.2425ZM58.9297 30.6442L77.0678 22.2174L77.0719 22.2262L77.076 22.2351L58.9297 30.6442ZM64.1145 20.8283C62.6751 24.0363 55.6075 39.2739 41.5255 69.6908L5.22686 52.8857C19.4306 22.2059 26.3094 7.37403 27.6199 4.45321L64.1145 20.8283ZM41.5078 69.7289C35.2025 83.2734 31.4435 91.4488 29.3497 96.216C28.255 98.7087 27.8342 99.7791 27.7342 100.061C27.5943 100.454 28.0432 99.331 28.3167 97.6082C28.3859 97.1721 28.9798 93.8718 27.9386 89.7862C27.3508 87.4798 25.8784 83.4899 22.0792 80.0193C17.8976 76.1994 12.8773 74.8052 8.64402 74.8052V114.805C4.36781 114.805 -0.688573 113.398 -4.89896 109.552C-8.72696 106.055 -10.2208 102.025 -10.8224 99.6647C-11.8913 95.4705 -11.2945 92.004 -11.1886 91.337C-10.8419 89.1527 -10.185 87.3095 -9.95812 86.6708C-9.32463 84.8875 -8.37651 82.6421 -7.27375 80.1312C-4.97238 74.8912 -1.0216 66.3081 5.24455 52.8476L41.5078 69.7289ZM8.64402 74.8052C4.05021 74.8052 0.682739 76.3758 -0.858893 77.2095C-2.56768 78.1336 -3.77849 79.1138 -4.42564 79.6743C-5.71332 80.7896 -6.55666 81.8175 -6.85806 82.1909C-7.552 83.0506 -7.99702 83.7587 -8.08366 83.8955C-8.34961 84.3154 -8.47883 84.5646 -8.38789 84.3981C-8.2643 84.1718 -7.97916 83.6272 -7.49371 82.66C-6.55442 80.7886 -5.18252 77.9698 -3.45658 74.3611C-0.0209551 67.1778 4.65312 57.2092 9.73625 46.2006L46.0518 62.9691C40.9206 74.0817 36.1661 84.2233 32.6286 91.6198C30.8679 95.3011 29.367 98.3896 28.2561 100.603C27.7164 101.678 27.1821 102.721 26.7179 103.57C26.515 103.942 26.1498 104.602 25.7091 105.298C25.5351 105.572 25.018 106.385 24.2677 107.314C23.9381 107.723 23.0705 108.777 21.7626 109.91C21.1053 110.479 19.8853 111.466 18.1684 112.394C16.6186 113.232 13.244 114.805 8.64402 114.805V74.8052ZM9.72251 46.2304C14.8534 35.0703 19.6437 24.7897 23.2338 17.1731C25.0263 13.3703 26.5349 10.199 27.6441 7.9011C28.1946 6.76074 28.6738 5.77937 29.0519 5.02272C29.2366 4.65292 29.4359 4.25941 29.6272 3.89533C29.7208 3.71727 29.8534 3.46805 30.0073 3.19318C30.0768 3.0691 30.4697 2.35915 31.0271 1.54398L64.0467 24.1206C64.9542 22.7933 65.514 21.5403 64.8334 22.9024C64.5754 23.4187 64.1875 24.2112 63.6668 25.2898C62.6337 27.43 61.1837 30.4772 59.4159 34.2277C55.8854 41.7177 51.149 51.8824 46.0655 62.9392L9.72251 46.2304ZM32.2162 -0.0237045C35.1563 -3.52748 40.1122 -6.91743 46.7349 -7.24869C52.5197 -7.53802 56.7461 -5.31934 58.7011 -4.0811C62.3042 -1.79903 64.4107 1.1485 64.9237 1.85091C66.5355 4.05797 68.0231 6.78589 69.267 9.17546C71.9896 14.4055 76.0391 22.9516 81.9985 35.8587L45.6825 52.6262C39.6596 39.5816 35.9993 31.896 33.7866 27.6455C32.563 25.2948 32.2766 24.9703 32.6208 25.4417C32.7656 25.64 33.1348 26.1327 33.7146 26.7546C34.2118 27.2878 35.4142 28.5179 37.2984 29.7113C39.0515 30.8216 43.1016 32.983 48.7331 32.7014C55.2025 32.3778 60.0279 29.0604 62.8576 25.6883L32.2162 -0.0237045ZM82.0089 35.8813C92.3418 58.3341 98.1644 70.8928 101.461 77.7763C103.162 81.33 103.979 82.9228 104.309 83.5157C104.607 84.0514 104.124 83.079 103.099 81.8166C102.837 81.4938 100.848 78.9398 97.2528 77.0057C95.2166 75.9104 91.4924 74.3785 86.629 74.6757C81.2898 75.0021 76.9239 77.3851 73.9407 80.2939L101.865 108.933C98.8513 111.872 94.4499 114.272 89.0695 114.601C84.1649 114.901 80.3938 113.357 78.304 112.233C74.6012 110.241 72.4788 107.563 72.0489 107.033C70.6879 105.358 69.733 103.642 69.3638 102.979C68.359 101.175 67.0578 98.5485 65.3834 95.0517C61.9273 87.8341 55.9642 74.9678 45.6721 52.6037L82.0089 35.8813ZM73.9407 80.2939C69.0477 85.0648 68.2298 90.6178 68.036 92.4598C67.7972 94.7309 68.0149 96.5069 68.1181 97.2355C68.3373 98.7846 68.6966 99.8875 68.7356 100.011C68.8849 100.485 68.9366 100.551 68.613 99.765C68.0405 98.3756 66.912 95.8012 64.8468 91.2406C60.766 82.2286 53.4665 66.4224 40.7835 39.0533L77.076 22.2351C89.7323 49.5465 97.1159 65.5334 101.285 74.7403C103.345 79.2891 104.733 82.4306 105.597 84.5275C105.992 85.4851 106.491 86.7367 106.885 87.9842C107.046 88.4949 107.476 89.8819 107.723 91.6302C107.841 92.4585 108.062 94.3128 107.817 96.6435C107.617 98.545 106.783 104.139 101.865 108.933L73.9407 80.2939ZM40.7917 39.0709C38.2601 33.6218 35.8594 28.669 34.0637 25.1337C33.1494 23.3339 32.482 22.0793 32.0774 21.3621C31.8489 20.9572 31.8636 21.0079 32.0552 21.2974C32.1219 21.3982 32.5013 21.9752 33.1152 22.7121C33.4109 23.067 34.0601 23.8229 35.0093 24.6774C35.4974 25.1168 36.2569 25.7567 37.2634 26.4274C38.2085 27.0571 39.8693 28.0503 42.1407 28.7885L54.5045 -9.25272C58.5987 -7.92208 61.158 -5.60342 61.7709 -5.05173C62.7732 -4.14941 63.4835 -3.32806 63.8481 -2.89044C64.5998 -1.98816 65.148 -1.17693 65.4129 -0.776695C66.0008 0.111717 66.5288 1.02203 66.9158 1.70795C67.7419 3.17233 68.7134 5.02401 69.7266 7.01879C71.7858 11.0727 74.394 16.4622 77.0678 22.2174L40.7917 39.0709ZM42.1407 28.7885C50.4374 31.485 56.7974 27.833 58.2743 26.9235C60.4429 25.588 61.7478 24.1619 62.2772 23.5481C63.4535 22.1842 64.075 20.9756 64.4442 20.0501L27.2903 5.23147C28.347 2.5822 29.9015 -0.158562 31.9863 -2.57587C32.9699 -3.71639 34.723 -5.54949 37.2998 -7.13632C39.1849 -8.2972 45.9132 -12.045 54.5045 -9.25272L42.1407 28.7885Z" fill="white" mask="url(#path-1-inside-1_1_313)"/>
<mask id="path-3-inside-2_1_313" fill="white">
<path d="M73.6621 10.1509C73.6621 10.7255 77.5907 19.5357 82.305 29.7823C87.1175 40.0289 95.7603 58.7984 101.653 71.6306C107.644 84.367 112.85 94.7094 113.439 94.5179C114.225 94.2306 127.778 65.8848 146.537 24.8984C153.51 9.4806 153.805 8.81026 152.43 10.0552C151.939 10.534 147.323 20.0145 142.216 31.123C137.109 42.2314 128.564 60.6179 123.26 72.1094C117.957 83.6009 113.242 92.6026 112.85 92.2196C112.26 91.5492 96.546 57.745 80.7335 22.9831C75.5282 11.3959 73.6621 8.04416 73.6621 10.1509Z"/>
</mask>
<path d="M73.6621 10.1509C73.6621 10.7255 77.5907 19.5357 82.305 29.7823C87.1175 40.0289 95.7603 58.7984 101.653 71.6306C107.644 84.367 112.85 94.7094 113.439 94.5179C114.225 94.2306 127.778 65.8848 146.537 24.8984C153.51 9.4806 153.805 8.81026 152.43 10.0552C151.939 10.534 147.323 20.0145 142.216 31.123C137.109 42.2314 128.564 60.6179 123.26 72.1094C117.957 83.6009 113.242 92.6026 112.85 92.2196C112.26 91.5492 96.546 57.745 80.7335 22.9831C75.5282 11.3959 73.6621 8.04416 73.6621 10.1509Z" fill="white"/>
<path d="M82.305 29.7823L64.2022 38.2846L64.1687 38.2132L64.1357 38.1416L82.305 29.7823ZM101.653 71.6306L83.5554 80.1436L83.5163 80.0605L83.478 79.9771L101.653 71.6306ZM113.439 94.5179L120.307 113.302L119.966 113.426L119.621 113.538L113.439 94.5179ZM146.537 24.8984L164.76 33.1403L164.742 33.1811L164.723 33.2218L146.537 24.8984ZM152.43 10.0552L138.468 -4.26455L138.732 -4.5227L139.007 -4.77089L152.43 10.0552ZM112.85 92.2196L98.8873 106.539L98.3365 106.002L97.8285 105.424L112.85 92.2196ZM80.7335 22.9831L62.5285 31.2643L62.5091 31.2215L62.4899 31.1788L80.7335 22.9831ZM93.6621 10.1509C93.6621 7.89492 93.2605 6.1723 93.1901 5.85791C93.05 5.23244 92.9104 4.75935 92.8453 4.54477C92.7106 4.10101 92.6027 3.81351 92.6023 3.81232C92.5845 3.7642 92.6405 3.91549 92.8268 4.36528C93.1789 5.21512 93.7431 6.52263 94.5084 8.25404C96.0227 11.6799 98.1371 16.3432 100.474 21.4229L64.1357 38.1416C61.7585 32.9748 59.5515 28.1097 57.923 24.4252C57.1168 22.6014 56.4042 20.9582 55.8724 19.6743C55.6167 19.0573 55.329 18.3459 55.078 17.666C54.9609 17.3489 54.764 16.8032 54.5695 16.1623C54.4744 15.8491 54.3122 15.2927 54.157 14.5995C54.0714 14.2175 53.6621 12.4429 53.6621 10.1509H93.6621ZM100.408 21.28C105.263 31.618 113.942 50.4669 119.828 63.2841L83.478 79.9771C77.5783 67.1299 68.9718 48.4399 64.2022 38.2846L100.408 21.28ZM119.751 63.1176C122.703 69.3933 125.397 74.9415 127.379 78.817C128.395 80.8051 129.091 82.0909 129.477 82.7531C129.72 83.1705 129.586 82.9013 129.184 82.3484C129.065 82.1849 128.308 81.1264 127.048 79.9302C126.472 79.3833 124.969 78.0059 122.667 76.7974C120.737 75.7841 114.754 73.0605 107.257 75.4973L119.621 113.538C112.087 115.987 106.058 113.255 104.073 112.213C101.717 110.976 100.15 109.55 99.5026 108.935C98.0991 107.602 97.1636 106.328 96.8343 105.875C96.0113 104.744 95.3274 103.598 94.9059 102.874C93.9623 101.253 92.8719 99.1931 91.7645 97.0274C89.4984 92.5956 86.5945 86.6044 83.5554 80.1436L119.751 63.1176ZM106.571 75.7341C102.387 77.2641 99.8757 79.8179 99.4794 80.2066C98.6135 81.056 98.0234 81.7953 97.7651 82.1273C97.2196 82.8284 96.8755 83.3777 96.8111 83.4798C96.627 83.7723 96.5892 83.8593 96.7678 83.5326C97.0785 82.9642 97.6202 81.9237 98.4265 80.3161C100.01 77.1592 102.296 72.4511 105.191 66.3714C110.965 54.2455 118.999 37.0098 128.351 16.575L164.723 33.2218C155.317 53.7735 147.194 71.2038 141.305 83.5692C138.369 89.7352 135.947 94.7291 134.182 98.2486C133.314 99.9793 132.521 101.521 131.867 102.718C131.563 103.273 131.135 104.039 130.657 104.798C130.446 105.134 129.978 105.863 129.334 106.691C129.027 107.086 128.394 107.876 127.491 108.761C127.057 109.186 124.516 111.763 120.307 113.302L106.571 75.7341ZM128.314 16.6565C131.944 8.63068 133.482 5.21187 134.037 3.81896C134.174 3.47677 134.011 3.84342 133.807 4.5444C133.716 4.85565 133.427 5.86628 133.246 7.24637C133.185 7.7159 132.421 12.4265 134.772 17.755C136.245 21.0937 139.099 24.9815 143.934 27.4539C148.543 29.8114 152.901 29.8271 155.61 29.4697C160.209 28.863 163.301 26.7659 163.677 26.524C164.631 25.9101 165.291 25.3611 165.469 25.2132C165.603 25.1014 165.704 25.0138 165.758 24.9657C165.815 24.9164 165.85 24.8845 165.853 24.8812L139.007 -4.77089C139.162 -4.91161 139.479 -5.19663 139.865 -5.51858C140.186 -5.78585 140.974 -6.43306 142.038 -7.11763C142.524 -7.43029 145.708 -9.5706 150.379 -10.1867C153.124 -10.5488 157.512 -10.5294 162.147 -8.15894C167.006 -5.67368 169.88 -1.76363 171.368 1.60722C173.747 7.00003 172.989 11.815 172.908 12.4352C172.708 13.9659 172.373 15.1735 172.21 15.7343C171.86 16.9343 171.441 18.0102 171.191 18.6376C170.2 21.1231 168.103 25.7483 164.76 33.1403L128.314 16.6565ZM166.392 24.3749C167.638 23.1607 168.423 22.061 168.597 21.8195C168.901 21.3981 169.115 21.0638 169.212 20.9103C169.323 20.7334 169.401 20.6015 169.438 20.5384C169.479 20.4697 169.502 20.4284 169.505 20.4229C169.509 20.4162 169.478 20.4716 169.404 20.6093C169.334 20.7411 169.242 20.9169 169.127 21.1416C168.649 22.07 167.944 23.4879 167.046 25.3375C165.265 29.0065 162.894 34.0243 160.387 39.4774L124.044 22.7686C126.644 17.1132 129.136 11.8365 131.062 7.86839C132.018 5.89946 132.878 4.16317 133.563 2.83216C133.896 2.18678 134.261 1.4921 134.614 0.861633C134.782 0.562683 135.047 0.0980911 135.369 -0.412971C135.528 -0.665001 135.796 -1.081 136.146 -1.56709C136.367 -1.87318 137.192 -3.02039 138.468 -4.26455L166.392 24.3749ZM160.387 39.4774C155.286 50.5727 146.67 69.1133 141.42 80.4903L105.101 63.7285C110.457 52.1225 118.931 33.8902 124.044 22.7686L160.387 39.4774ZM141.42 80.4903C138.672 86.443 136.03 91.8569 133.961 95.8382C132.955 97.7747 131.947 99.6389 131.059 101.123C130.683 101.752 129.979 102.906 129.096 104.064C128.806 104.444 127.62 106.016 125.754 107.566C124.982 108.208 122.483 110.24 118.619 111.393C113.825 112.823 105.543 113.029 98.8873 106.539L126.812 77.8999C123.989 75.1472 120.343 73.2285 116.291 72.5253C112.491 71.8658 109.292 72.433 107.179 73.0635C103.356 74.2044 100.907 76.2058 100.192 76.8C98.4411 78.2545 97.4011 79.6618 97.2888 79.8091C96.7592 80.5035 96.5296 80.9273 96.7332 80.5869C97.0055 80.1319 97.5813 79.0992 98.4658 77.3967C100.179 74.1001 102.545 69.2674 105.101 63.7285L141.42 80.4903ZM97.8285 105.424C96.6465 104.08 95.8974 102.839 95.8379 102.743C95.5947 102.353 95.4079 102.024 95.3071 101.845C95.0963 101.469 94.9145 101.121 94.7969 100.894C94.5457 100.407 94.2642 99.8402 93.9848 99.2692C93.4115 98.0977 92.6447 96.496 91.7318 94.5689C89.8964 90.6942 87.3579 85.2661 84.3594 78.8065C78.3575 65.8765 70.4544 48.6883 62.5285 31.2643L98.9386 14.702C106.825 32.0399 114.685 49.1347 120.641 61.9649C123.621 68.3854 126.11 73.7066 127.881 77.4451C128.771 79.3246 129.453 80.7453 129.913 81.6866C130.151 82.172 130.283 82.4338 130.334 82.5333C130.368 82.5986 130.31 82.4831 130.194 82.2766C130.141 82.1816 129.994 81.9222 129.784 81.5851C129.758 81.5426 129.034 80.3385 127.871 79.0148L97.8285 105.424ZM62.4899 31.1788C59.8367 25.2727 58.393 22.2861 57.7381 21.1003C57.5994 20.8491 57.6853 21.0277 57.956 21.4283C58.0953 21.6345 58.406 22.082 58.8743 22.6453C59.2628 23.1127 60.2379 24.2457 61.7685 25.4343C62.9068 26.3182 66.8358 29.2316 72.8645 29.5347C80.8333 29.9352 86.9218 25.681 90.1327 21.0977C92.612 17.5587 93.2293 14.1908 93.4044 13.1548C93.6435 11.7411 93.6621 10.6396 93.6621 10.1509H53.6621C53.6621 9.3989 53.6953 8.07677 53.9642 6.48631C54.1693 5.27361 54.8317 1.77302 57.3722 -1.85334C60.6443 -6.52397 66.8101 -10.8202 74.8728 -10.4149C80.9954 -10.1071 85.0351 -7.1423 86.3015 -6.1589C89.1212 -3.96932 90.7676 -1.45717 91.0981 -0.968208C91.7705 0.0268173 92.3337 1.00298 92.7535 1.76321C94.333 4.62339 96.425 9.10625 98.9772 14.7875L62.4899 31.1788Z" fill="white" mask="url(#path-3-inside-2_1_313)"/>
</svg>
