<svg width="30" height="30" viewBox="0 0 30 30" fill="none" xmlns="http://www.w3.org/2000/svg">
<path d="M14 3.5C19.799 3.5 24.5 8.201 24.5 14C24.5018 15.414 24.2172 16.8138 23.6632 18.1149C23.1093 19.4159 22.2976 20.5912 21.277 21.57L26.354 26.646C26.4426 26.7342 26.4949 26.8524 26.5007 26.9772C26.5065 27.1021 26.4653 27.2246 26.3852 27.3206C26.3052 27.4166 26.1921 27.4791 26.0682 27.4958C25.9443 27.5126 25.8187 27.4823 25.716 27.411L25.646 27.354L20.522 22.229C18.668 23.7029 16.3685 24.5036 14 24.5C8.201 24.5 3.5 19.799 3.5 14C3.5 8.201 8.201 3.5 14 3.5ZM14 4.5C12.7524 4.5 11.5171 4.74572 10.3645 5.22314C9.21191 5.70056 8.16464 6.40033 7.28249 7.28249C6.40033 8.16464 5.70056 9.21191 5.22314 10.3645C4.74572 11.5171 4.5 12.7524 4.5 14C4.5 15.2476 4.74572 16.4829 5.22314 17.6355C5.70056 18.7881 6.40033 19.8354 7.28249 20.7175C8.16464 21.5997 9.21191 22.2994 10.3645 22.7769C11.5171 23.2543 12.7524 23.5 14 23.5C16.5196 23.5 18.9359 22.4991 20.7175 20.7175C22.4991 18.9359 23.5 16.5196 23.5 14C23.5 11.4804 22.4991 9.06408 20.7175 7.28249C18.9359 5.50089 16.5196 4.5 14 4.5Z" fill="black"/>
</svg>
