<svg width="30" height="30" viewBox="0 0 30 30" fill="none" xmlns="http://www.w3.org/2000/svg">
<path d="M15 1C22.732 1 29 7.268 29 15C29 22.732 22.732 29 15 29C7.268 29 1 22.732 1 15C1 7.268 7.268 1 15 1ZM15 20.808C11.6454 20.803 8.40999 22.0521 5.929 24.31C8.35324 26.6797 11.6099 28.0045 15 28C18.529 28 21.73 26.594 24.072 24.311C21.591 22.0524 18.3551 20.8029 15 20.808ZM15 2C7.82 2 2 7.82 2 15C1.99544 18.1614 3.1475 21.2153 5.239 23.586C7.90597 21.1507 11.3884 19.8028 15 19.808C18.664 19.808 22.114 21.174 24.762 23.586C26.853 21.2151 28.0046 18.1613 28 15C28 7.82 22.18 2 15 2ZM15 5.5C15.8494 5.4894 16.6924 5.64753 17.4802 5.96523C18.268 6.28294 18.9848 6.75388 19.5892 7.35076C20.1936 7.94764 20.6734 8.65857 21.0009 9.44233C21.3285 10.2261 21.4971 11.0671 21.4971 11.9165C21.4971 12.7659 21.3285 13.6069 21.0009 14.3907C20.6734 15.1744 20.1936 15.8854 19.5892 16.4822C18.9848 17.0791 18.268 17.5501 17.4802 17.8678C16.6924 18.1855 15.8494 18.3436 15 18.333C13.3121 18.3119 11.7005 17.6266 10.5144 16.4256C9.32823 15.2246 8.66311 13.6045 8.66311 11.9165C8.66311 10.2285 9.32823 8.60844 10.5144 7.40741C11.7005 6.20637 13.3121 5.52107 15 5.5ZM15 6.5C14.2825 6.49025 13.5702 6.62315 12.9045 6.89098C12.2388 7.15881 11.6329 7.55623 11.1221 8.06017C10.6113 8.56411 10.2057 9.16451 9.92882 9.82652C9.65197 10.4885 9.5094 11.1989 9.5094 11.9165C9.5094 12.6341 9.65197 13.3445 9.92882 14.0065C10.2057 14.6685 10.6113 15.2689 11.1221 15.7728C11.6329 16.2768 12.2388 16.6742 12.9045 16.942C13.5702 17.2099 14.2825 17.3427 15 17.333C16.4238 17.3137 17.7827 16.7345 18.7827 15.7208C19.7827 14.7071 20.3434 13.3404 20.3434 11.9165C20.3434 10.4926 19.7827 9.1259 18.7827 8.11221C17.7827 7.09853 16.4238 6.51935 15 6.5Z" fill="black"/>
</svg>
